<svg width="2630" height="990" viewBox="0 0 2630 990" fill="none" xmlns="http://www.w3.org/2000/svg">
<path d="M555 608.941V342.5C465.701 378.041 417.212 401.699 332.5 449.139C370.631 530.668 389.905 573.129 408.643 627.079C414.339 616.504 418.269 612.487 421.749 609.879C477.185 661.862 505.109 660.181 555 608.941Z" fill="#193354"/>
<path d="M555 608.941V342.5C644.299 378.041 692.788 401.699 777.5 449.139C739.369 530.668 720.095 573.129 701.357 627.079C695.661 616.504 691.731 612.487 688.251 609.879C632.815 661.862 604.891 660.181 555 608.941Z" fill="#10233F"/>
<path d="M424.062 648.125C390.625 675.312 350 675.625 308.125 652.188C329.375 701.562 372.5 725 429.375 697.812C476.25 718.75 520.625 720.312 555 697.812V648.125C520.625 685.625 461.562 685 424.062 648.125Z" fill="#449696"/>
<path d="M685.938 648.125C719.375 675.312 760 675.625 801.875 652.188C780.625 701.562 737.5 725 680.625 697.812C633.75 718.75 589.375 720.312 555 697.812V648.125C589.375 685.625 648.438 685 685.938 648.125Z" fill="#449696"/>
<path d="M555 731.25C519.688 751.875 424.688 756.875 373.75 735.312C403.75 770 482.812 802.812 555 802.812V731.25Z" fill="#449696"/>
<path d="M555 731.25C590.312 751.875 685.312 756.875 736.25 735.312C706.25 770 627.188 802.812 555 802.812V731.25Z" fill="#449696"/>
<path d="M561.25 322.188C621.186 346.289 651.547 360.583 701.25 387.188V258.75L561.25 264.062V322.188Z" fill="#449696"/>
<path d="M685 362.5V275L658.75 275.625V350.625L685 362.5Z" fill="#1B716F"/>
<path d="M649.375 345.625V275.625L627.5 276.116V335.625L649.375 345.625Z" fill="#1B716F"/>
<path d="M618.125 331.25V276.25L600.625 276.618V323.75L618.125 331.25Z" fill="#1B716F"/>
<path d="M591.25 319.375V276.875L578.125 277.149V314.062L591.25 319.375Z" fill="#1B716F"/>
<path d="M555 249.062L493.125 246.244V189.062H555V249.062Z" fill="#449696"/>
<path d="M555 249.062L616.875 246.244V189.062H555V249.062Z" fill="#449696"/>
<path d="M608.125 238.125V199.375H588.125V238.75L608.125 238.125Z" fill="#1B716F"/>
<path d="M579.375 239.062V199.375H559.375V239.688L579.375 239.062Z" fill="#1B716F"/>
<path d="M493.438 450.938L482.5 436.875L464.375 450.938L474.688 463.125L493.438 450.938Z" fill="#F5F5F7"/>
<path d="M616.875 450.938L627.812 436.875L645.938 450.938L635.625 463.125L616.875 450.938Z" fill="#F5F5F7"/>
<path d="M548.75 322.188C488.814 346.289 458.453 360.583 408.75 387.188V258.75L548.75 264.062V322.188Z" fill="#449696"/>
<path d="M425 362.5V275L451.25 275.625V350.625L425 362.5Z" fill="#1B716F"/>
<path d="M460.625 345.625V275.625L482.5 276.116V335.625L460.625 345.625Z" fill="#1B716F"/>
<path d="M491.875 331.25V276.25L509.375 276.618V323.75L491.875 331.25Z" fill="#1B716F"/>
<path d="M518.75 319.375V276.875L531.875 277.149V314.062L518.75 319.375Z" fill="#1B716F"/>
<path d="M501.875 238.125V199.375H521.875V238.75L501.875 238.125Z" fill="#1B716F"/>
<path d="M530.625 239.062V199.375H550.625V239.688L530.625 239.062Z" fill="#1B716F"/>
<path d="M947.28 442V263.2H1022.64C1034.48 263.2 1044.56 265.28 1052.88 269.44C1061.36 273.44 1067.84 279.2 1072.32 286.72C1076.96 294.08 1079.28 303.04 1079.28 313.6C1079.28 321.76 1077.04 329.44 1072.56 336.64C1068.24 343.68 1061.28 349.52 1051.68 354.16V339.04C1060.48 342.4 1067.44 346.56 1072.56 351.52C1077.68 356.48 1081.28 362 1083.36 368.08C1085.44 374.16 1086.48 380.56 1086.48 387.28C1086.48 404.4 1080.8 417.84 1069.44 427.6C1058.24 437.2 1042.64 442 1022.64 442H947.28ZM979.92 413.2H1026C1034.48 413.2 1041.2 410.88 1046.16 406.24C1051.28 401.44 1053.84 395.12 1053.84 387.28C1053.84 379.44 1051.28 373.12 1046.16 368.32C1041.2 363.52 1034.48 361.12 1026 361.12H979.92V413.2ZM979.92 332.56H1024.32C1031.04 332.56 1036.4 330.64 1040.4 326.8C1044.4 322.8 1046.4 317.68 1046.4 311.44C1046.4 305.2 1044.4 300.24 1040.4 296.56C1036.4 292.88 1031.04 291.04 1024.32 291.04H979.92V332.56ZM1098.58 442L1160.26 263.2H1202.5L1264.18 442H1228.66L1215.94 403.6H1146.82L1133.86 442H1098.58ZM1156.18 374.8H1206.58L1176.82 285.76H1185.94L1156.18 374.8ZM1312.8 442V362.8L1252.56 263.2H1289.76L1335.84 340.96H1322.64L1368.48 263.2H1405.68L1345.68 362.56V442H1312.8ZM1425.64 442V263.2H1458.28V341.2H1534.36V263.2H1567.24V442H1534.36V370H1458.28V442H1425.64ZM1587.02 442L1648.7 263.2H1690.94L1752.62 442H1717.1L1704.38 403.6H1635.26L1622.3 442H1587.02ZM1644.62 374.8H1695.02L1665.26 285.76H1674.38L1644.62 374.8ZM1772.51 442V263.2H1838.99C1851.15 263.2 1861.87 265.44 1871.15 269.92C1880.59 274.24 1887.95 280.64 1893.23 289.12C1898.51 297.44 1901.15 307.6 1901.15 319.6C1901.15 331.92 1898.19 342.4 1892.27 351.04C1886.51 359.68 1878.67 366.08 1868.75 370.24L1909.79 442H1872.83L1828.91 363.52L1850.03 376H1805.15V442H1772.51ZM1805.15 347.2H1839.47C1845.39 347.2 1850.51 346.08 1854.83 343.84C1859.15 341.44 1862.51 338.16 1864.91 334C1867.31 329.84 1868.51 325.04 1868.51 319.6C1868.51 314 1867.31 309.2 1864.91 305.2C1862.51 301.04 1859.15 297.84 1854.83 295.6C1850.51 293.2 1845.39 292 1839.47 292H1805.15V347.2ZM1931.19 442V263.2H2006.55C2018.39 263.2 2028.47 265.28 2036.79 269.44C2045.27 273.44 2051.75 279.2 2056.23 286.72C2060.87 294.08 2063.19 303.04 2063.19 313.6C2063.19 321.76 2060.95 329.44 2056.47 336.64C2052.15 343.68 2045.19 349.52 2035.59 354.16V339.04C2044.39 342.4 2051.35 346.56 2056.47 351.52C2061.59 356.48 2065.19 362 2067.27 368.08C2069.35 374.16 2070.39 380.56 2070.39 387.28C2070.39 404.4 2064.71 417.84 2053.35 427.6C2042.15 437.2 2026.55 442 2006.55 442H1931.19ZM1963.83 413.2H2009.91C2018.39 413.2 2025.11 410.88 2030.07 406.24C2035.19 401.44 2037.75 395.12 2037.75 387.28C2037.75 379.44 2035.19 373.12 2030.07 368.32C2025.11 363.52 2018.39 361.12 2009.91 361.12H1963.83V413.2ZM1963.83 332.56H2008.23C2014.95 332.56 2020.31 330.64 2024.31 326.8C2028.31 322.8 2030.31 317.68 2030.31 311.44C2030.31 305.2 2028.31 300.24 2024.31 296.56C2020.31 292.88 2014.95 291.04 2008.23 291.04H1963.83V332.56ZM2185.2 444.88C2172.08 444.88 2159.84 442.56 2148.48 437.92C2137.12 433.28 2127.2 426.8 2118.72 418.48C2110.24 410.16 2103.6 400.4 2098.8 389.2C2094.16 377.84 2091.84 365.6 2091.84 352.48C2091.84 339.2 2094.16 326.96 2098.8 315.76C2103.44 304.56 2110 294.8 2118.48 286.48C2126.96 278.16 2136.88 271.76 2148.24 267.28C2159.6 262.64 2171.92 260.32 2185.2 260.32C2198.48 260.32 2210.8 262.64 2222.16 267.28C2233.52 271.92 2243.44 278.4 2251.92 286.72C2260.4 294.88 2266.96 304.56 2271.6 315.76C2276.4 326.96 2278.8 339.2 2278.8 352.48C2278.8 365.6 2276.4 377.84 2271.6 389.2C2266.8 400.4 2260.16 410.16 2251.68 418.48C2243.2 426.8 2233.28 433.28 2221.92 437.92C2210.72 442.56 2198.48 444.88 2185.2 444.88ZM2185.2 415.12C2194 415.12 2202.08 413.6 2209.44 410.56C2216.8 407.36 2223.2 402.96 2228.64 397.36C2234.24 391.76 2238.48 385.12 2241.36 377.44C2244.4 369.76 2245.92 361.44 2245.92 352.48C2245.92 343.52 2244.4 335.28 2241.36 327.76C2238.48 320.08 2234.24 313.44 2228.64 307.84C2223.2 302.08 2216.8 297.68 2209.44 294.64C2202.08 291.6 2194 290.08 2185.2 290.08C2176.56 290.08 2168.56 291.6 2161.2 294.64C2153.84 297.68 2147.36 302.08 2141.76 307.84C2136.32 313.44 2132.08 320.08 2129.04 327.76C2126 335.28 2124.48 343.52 2124.48 352.48C2124.48 361.44 2126 369.76 2129.04 377.44C2132.08 385.12 2136.32 391.76 2141.76 397.36C2147.36 402.96 2153.84 407.36 2161.2 410.56C2168.56 413.6 2176.56 415.12 2185.2 415.12ZM2307.83 442V263.2H2374.31C2386.47 263.2 2397.19 265.44 2406.47 269.92C2415.91 274.24 2423.27 280.64 2428.55 289.12C2433.83 297.44 2436.47 307.6 2436.47 319.6C2436.47 331.92 2433.51 342.4 2427.59 351.04C2421.83 359.68 2413.99 366.08 2404.07 370.24L2445.11 442H2408.15L2364.23 363.52L2385.35 376H2340.47V442H2307.83ZM2340.47 347.2H2374.79C2380.71 347.2 2385.83 346.08 2390.15 343.84C2394.47 341.44 2397.83 338.16 2400.23 334C2402.63 329.84 2403.83 325.04 2403.83 319.6C2403.83 314 2402.63 309.2 2400.23 305.2C2397.83 301.04 2394.47 297.84 2390.15 295.6C2385.83 293.2 2380.71 292 2374.79 292H2340.47V347.2ZM951.12 744V565.2H1066.32V583.2H970.32V645.36H1061.52V663.36H970.32V726H1066.32V744H951.12ZM1079.59 744L1137.67 652.8L1081.51 565.2H1103.11L1151.83 641.52H1145.35L1193.83 565.2H1215.43L1159.27 652.8L1217.59 744H1195.99L1145.35 664.32H1151.83L1100.71 744H1079.59ZM1241.28 744V565.2H1302.72C1314.4 565.2 1324.64 567.52 1333.44 572.16C1342.24 576.64 1349.04 583.04 1353.84 591.36C1358.8 599.52 1361.28 609.04 1361.28 619.92C1361.28 630.8 1358.8 640.32 1353.84 648.48C1349.04 656.64 1342.24 663.04 1333.44 667.68C1324.8 672.16 1314.56 674.4 1302.72 674.4H1260.48V744H1241.28ZM1260.48 656.4H1303.68C1311.36 656.4 1318.08 654.96 1323.84 652.08C1329.6 649.04 1334.08 644.8 1337.28 639.36C1340.48 633.76 1342.08 627.2 1342.08 619.68C1342.08 612.16 1340.48 605.68 1337.28 600.24C1334.08 594.8 1329.6 590.64 1323.84 587.76C1318.08 584.72 1311.36 583.2 1303.68 583.2H1260.48V656.4ZM1479.74 746.88C1467.26 746.88 1455.58 744.64 1444.7 740.16C1433.98 735.52 1424.54 729.12 1416.38 720.96C1408.22 712.64 1401.82 702.88 1397.18 691.68C1392.54 680.32 1390.21 667.92 1390.21 654.48C1390.21 641.04 1392.54 628.72 1397.18 617.52C1401.82 606.16 1408.22 596.4 1416.38 588.24C1424.54 579.92 1433.98 573.52 1444.7 569.04C1455.58 564.56 1467.26 562.32 1479.74 562.32C1492.22 562.32 1503.82 564.64 1514.54 569.28C1525.42 573.76 1534.94 580.16 1543.1 588.48C1551.26 596.64 1557.66 606.32 1562.3 617.52C1566.94 628.72 1569.26 641.04 1569.26 654.48C1569.26 667.92 1566.94 680.32 1562.3 691.68C1557.66 702.88 1551.26 712.64 1543.1 720.96C1534.94 729.12 1525.42 735.52 1514.54 740.16C1503.82 744.64 1492.22 746.88 1479.74 746.88ZM1479.74 728.88C1490.14 728.88 1499.58 726.96 1508.06 723.12C1516.7 719.28 1524.14 713.92 1530.38 707.04C1536.62 700.16 1541.42 692.24 1544.78 683.28C1548.3 674.32 1550.06 664.72 1550.06 654.48C1550.06 644.4 1548.3 634.88 1544.78 625.92C1541.42 616.96 1536.62 609.04 1530.38 602.16C1524.14 595.28 1516.7 589.92 1508.06 586.08C1499.58 582.24 1490.14 580.32 1479.74 580.32C1469.34 580.32 1459.82 582.24 1451.18 586.08C1442.7 589.92 1435.34 595.28 1429.1 602.16C1422.86 609.04 1417.98 616.96 1414.46 625.92C1411.1 634.88 1409.42 644.4 1409.42 654.48C1409.42 664.72 1411.1 674.32 1414.46 683.28C1417.98 692.24 1422.86 700.16 1429.1 707.04C1435.34 713.92 1442.78 719.28 1451.42 723.12C1460.06 726.96 1469.5 728.88 1479.74 728.88ZM1606.2 744V565.2H1667.64C1679.32 565.2 1689.56 567.52 1698.36 572.16C1707.16 576.64 1713.96 583.04 1718.76 591.36C1723.72 599.52 1726.2 609.04 1726.2 619.92C1726.2 632.56 1722.84 643.36 1716.12 652.32C1709.56 661.28 1700.6 667.6 1689.24 671.28L1731 744H1708.44L1664.76 666.96L1677.72 674.4H1625.4V744H1606.2ZM1625.4 656.4H1668.6C1676.28 656.4 1683 654.96 1688.76 652.08C1694.52 649.04 1699 644.8 1702.2 639.36C1705.4 633.76 1707 627.2 1707 619.68C1707 612.16 1705.4 605.68 1702.2 600.24C1699 594.8 1694.52 590.64 1688.76 587.76C1683 584.72 1676.28 583.2 1668.6 583.2H1625.4V656.4ZM1786.22 744V583.2H1736.78V565.2H1854.38V583.2H1805.42V744H1786.22ZM1938.31 746.88C1926.95 746.88 1916.63 744.72 1907.35 740.4C1898.07 736.08 1890.23 730.32 1883.83 723.12C1877.43 715.76 1872.87 707.68 1870.15 698.88L1887.43 692.4C1891.59 704.56 1898.07 713.84 1906.87 720.24C1915.67 726.48 1926.15 729.6 1938.31 729.6C1945.99 729.6 1952.71 728.4 1958.47 726C1964.39 723.44 1968.95 719.92 1972.15 715.44C1975.35 710.96 1976.95 705.76 1976.95 699.84C1976.95 691.04 1974.55 684.24 1969.75 679.44C1964.95 674.64 1958.07 670.96 1949.11 668.4L1916.95 658.8C1904.31 655.12 1894.55 648.96 1887.67 640.32C1880.95 631.68 1877.59 621.84 1877.59 610.8C1877.59 601.36 1879.91 593.04 1884.55 585.84C1889.19 578.48 1895.51 572.72 1903.51 568.56C1911.67 564.4 1920.87 562.32 1931.11 562.32C1941.83 562.32 1951.43 564.32 1959.91 568.32C1968.55 572.16 1975.83 577.28 1981.75 583.68C1987.67 590.08 1991.91 597.2 1994.47 605.04L1977.67 611.76C1973.83 601.2 1967.83 593.2 1959.67 587.76C1951.67 582.32 1942.23 579.6 1931.35 579.6C1924.47 579.6 1918.39 580.8 1913.11 583.2C1907.99 585.6 1903.99 589.04 1901.11 593.52C1898.23 598 1896.79 603.28 1896.79 609.36C1896.79 616.72 1899.11 623.36 1903.75 629.28C1908.39 635.04 1915.51 639.36 1925.11 642.24L1953.43 650.64C1967.51 654.8 1978.15 660.8 1985.35 668.64C1992.55 676.48 1996.15 686.32 1996.15 698.16C1996.15 707.76 1993.67 716.24 1988.71 723.6C1983.91 730.8 1977.11 736.48 1968.31 740.64C1959.67 744.8 1949.67 746.88 1938.31 746.88Z" fill="#10233F"/>
</svg>
